
<global>
amp_veltrack=0
ampeg_release=0.25
</global>

<group>
group_label=Group_0-42
lpc_hicc1=42
lpc_locc1=0

<region>
hikey=a3
hivel=127
lokey=g#3
loop_end=271788
loop_mode=loop_continuous
loop_start=104301
loop_xfade=36400
lovel=1
lpc=pLhGQkOlxsKFQ29CSSWXwSGJQUFiyxnBwIBZQaiaBcFpxl8//fZ/QI/4bsCAE8k/IjeXwBlQbkAb+Am+elfpvvkSs78pNzdA78R3v/+BXcDz1I8+OQO9QM0jJcCdw62+
lpc_rms=-25.01
offset=6664
pitch_keycenter=a3
sample=Alto_trill_half_PP_A3.opus
</region>

<region>
hikey=a4
hivel=127
lokey=g#4
loop_end=273116
loop_mode=loop_continuous
loop_start=104811
loop_xfade=36577
lovel=1
lpc=v6A6Qo7iwsKxLGxCgTtSweucL0EyTtzA8TLmQEnWBsFD8fK/IDE3QYH/1cB5Rk9AommQwFMOmr+MS2pAUgZRv9eUH8BERiVAqJcKQI4HGcAUVKM/pSuEv+75asCjbYJA
lpc_rms=-26.27
offset=4872
pitch_keycenter=a4
sample=Alto_trill_half_PP_A4.opus
</region>

<region>
hikey=B5
hivel=127
lokey=g#5
loop_end=258103
loop_mode=loop_continuous
loop_start=99049
loop_xfade=34567
lovel=1
lpc=3kfRQd84TcK4Yj5CRc7NwXQQeEG12VfBKoFQQc5xYcHu45hBLmpDwartWz9WxnNA91KlPwP4rb8YzjU+p4qkv0xphkDDOQLAtn1hQCPq58BN8iBBHT/1wOiID0ETIdPA
lpc_rms=-18.75
offset=2244
pitch_keycenter=A5
sample=Alto_trill_half_PP_A5.opus
</region>

<region>
hikey=b3
hivel=127
lokey=a#3
loop_end=279286
loop_mode=loop_continuous
loop_start=107179
loop_xfade=37404
lovel=1
lpc=n4wTQgD3jML9pilC3ICdwfgAj0EMSRvBsOHLQCbYCcHcGu1A0Pa5P3JnEMEcsTRBU+UBweTXLj5JZQg/W2U2QOZEDT+VzY7AwjOLQKacN8DfWha/dE9JQN9Psr/zMkk+
lpc_rms=-29.38
offset=5942
pitch_keycenter=b3
sample=Alto_trill_half_PP_B3.opus
</region>

<region>
hikey=b4
hivel=127
lokey=a#4
loop_end=270212
loop_mode=loop_continuous
loop_start=103696
loop_xfade=36188
lovel=1
lpc=8/YKQuaqr8J/F6ZCfHYwwk7g60FSZLDBlS8MQW6dosBo/OJAb6CaQFy1VcExZ7xALk4fwGFwET9L64ZAtBmiwG2OnUAcrBvAT8efP9Kdh79jm9w/7+vjv1Y4SMB69HRA
lpc_rms=-27.57
offset=6035
pitch_keycenter=b4
sample=Alto_trill_half_PP_B4.opus
</region>

<region>
hivel=127
key=c#3
loop_end=277381
loop_mode=loop_continuous
loop_start=106448
loop_xfade=37148
lovel=1
lpc=MZFRQqWhqsJG5SRCJTNpwXaBd0HTXMTBw9rUQaDzvMGk9gNBjWxFQdxAeMHSBjpBreMgwWH5g0C4hVjAgUkcQTQkhsA9PTjAuvRKQMt7ucDKnxJBbJitwLRJiEABFi3A
lpc_rms=-26.54
offset=18990
sample=Alto_trill_half_PP_C#3.opus
</region>

<region>
hikey=c#4
hivel=127
lokey=c4
loop_end=273961
loop_mode=loop_continuous
loop_start=105135
loop_xfade=36691
lovel=1
lpc=TIs6Qv36ssKYX2dCZXH/wQ/3vUEAkCLBM1UFQaIhL8Ht2iJB9p4UwHMs+r7M+DW9TqNawB6EgEBESJ7Adxk6QILivj7i26C/0pXbvv8nvEDUWMLAtnFVQJ9xZb4jPky/
lpc_rms=-26.00
offset=1601
pitch_keycenter=c#4
sample=Alto_trill_half_PP_C#4.opus
</region>

<region>
hikey=c#5
hivel=127
lokey=c5
loop_end=274591
loop_mode=loop_continuous
loop_start=105377
loop_xfade=36775
lovel=1
lpc=UYmgQQ0mPMIJ7ytC89O4waKkgUFzpDbBbTuDQNe1psBXmddA1u/uP8iFssAAd80/iD04wGdig0CSfYS/J4KdPwlb2b5qXRfAKcvuPx3ZTD/hdTM/YvP9v6P+H79RouI/
lpc_rms=-28.66
offset=1418
pitch_keycenter=c#5
sample=Alto_trill_half_PP_C#5.opus
</region>

<region>
hikey=d#3
hivel=127
lokey=d3
loop_end=281382
loop_mode=loop_continuous
loop_start=107983
loop_xfade=37684
lovel=1
lpc=wQ3xQToKNMKxkGdBj/EuwXK9P0Hd5A3Bj/yBQQ4jMME2JTZApLolQDBQ+z+nsqrArk5iQD8jk8DrcdO+MlhJQDQ4JT7N8Oc/gFhwwMPfUD9wVZW/YP8YQGVNzr95Emk/
lpc_rms=-27.78
offset=7348
pitch_keycenter=d#3
sample=Alto_trill_half_PP_D#3.opus
</region>

<region>
hikey=d#4
hivel=127
lokey=d4
loop_end=272750
loop_mode=loop_continuous
loop_start=104671
loop_xfade=36528
lovel=1
lpc=zSyqQVutLsKEh/1Bde2ewff+mkEWA1fBY7sLQfDVBMHnLPRAem8UwCPhfT9fkl3AtKsJQN1YQcDCBQ1AQPJyPywNaL9yWYs/Z+kgv3tk8j89fWDA7GLtP9yCtr/D8pg/
lpc_rms=-30.14
offset=2982
pitch_keycenter=d#4
sample=Alto_trill_half_PP_D#4.opus
</region>

<region>
hikey=d#5
hivel=127
lokey=d5
loop_end=280098
loop_mode=loop_continuous
loop_start=107490
loop_xfade=37512
lovel=1
lpc=HHHPQfG3ZcL8wlZCBHv3wR0tnkGNBzzBDt5vQDpJX8ApjRpA0CWvQKWh4MBDDYBALLE7v721T7+3y4A/IWxAQKalX8CGOZc+xvsOwDAf1EARHCvA5nyKv8huZb836zhA
lpc_rms=-28.14
offset=2413
pitch_keycenter=d#5
sample=Alto_trill_half_PP_D#5.opus
</region>

<region>
hikey=f3
hivel=127
lokey=e3
loop_end=272804
loop_mode=loop_continuous
loop_start=104691
loop_xfade=36536
lovel=1
lpc=dG7LQaXLKsIMxpBB/pXfwF0iDkFa6Z3AZ3VAQNaiwcCXHh9B2vMfwD/iZcBDRpRAXe5IwLrCAsAhCvw/WtdRPwYu/j0qkce/yvmZvunWnL5himhArSAmwF0hfz81rQO/
lpc_rms=-30.30
offset=30617
pitch_keycenter=f3
sample=Alto_trill_half_PP_F3.opus
</region>

<region>
hikey=f4
hivel=127
lokey=e4
loop_end=280524
loop_mode=loop_continuous
loop_start=107654
loop_xfade=37569
lovel=1
lpc=Wkl0QvBEzsJsvCRCSgiNwcnVzUHaeQrBExXHQBFZmcG4MwFCRfpqwdGfkb9DEXQ/fdkOwA9elMCeYq1Ak6QXQLJMs8BQjyVA+N8gwDtuxD4VUNFALu4wwPw/lsAPEnRA
lpc_rms=-25.17
offset=4249
pitch_keycenter=f4
sample=Alto_trill_half_PP_F4.opus
</region>

<region>
hikey=f5
hivel=127
lokey=e5
loop_end=271354
loop_mode=loop_continuous
loop_start=104135
loop_xfade=36341
lovel=1
lpc=PPjAQV8pWMKK4lhCxFoKwsNInkGC7CXBqrPlQIo9EsH3GDhBaX6EwHkYBsAKuQtA1+5IwJPuo0CyGqa/6ttiv8y0W0CnbLLAYM6qQHNUmz5Rc8zAfAD1QMJxUsB43dc/
lpc_rms=-25.18
offset=13679
pitch_keycenter=f5
sample=Alto_trill_half_PP_F5.opus
</region>

<region>
hikey=g3
hivel=127
lokey=f#3
loop_end=275538
loop_mode=loop_continuous
loop_start=105740
loop_xfade=36902
lovel=1
lpc=7OoFQmx4ccLIzNNBZGK9v2f6YUBADjPBlJZeQezV0sAmc5VA2W1GvXahJ8DvlE5AVSTav1aLHr9d22rAyFy5QBc3j8CXkRpAX35TvfLiLcCZRXZAETHfvwyR4rwGJjs+
lpc_rms=-31.85
offset=8268
pitch_keycenter=g3
sample=Alto_trill_half_PP_G3.opus
</region>

<region>
hikey=g4
hivel=127
lokey=f#4
loop_end=267861
loop_mode=loop_continuous
loop_start=102794
loop_xfade=35874
lovel=1
lpc=gBmhQhM/LMNylPpCFn9MwrB/sEFHZak/LuWkvprKksGlL7JBUFLLvnqXssCda5XAWW/eP4YIxMBcDgJB+55swHuDqkBr1L4/jK3QwBjJFkGj9FTB8eiGQQgZscE57kxB
lpc_rms=-26.83
offset=4508
pitch_keycenter=g4
sample=Alto_trill_half_PP_G4.opus
</region>

<region>
hikey=g5
hivel=127
lokey=f#5
loop_end=279565
loop_mode=loop_continuous
loop_start=107286
loop_xfade=37441
lovel=1
lpc=Wfs3Qrp5vMINXpNCcYfkwamUckH9Us7A7sAcP46rpsBxvgJBRw4KQXMImcHPTkBB7OaWwFPC90AzXD/Az+KSv5Q8/L6PZ9Q98t6mQG4nmz9un2u+hBhJwUCglkE93vrA
lpc_rms=-24.58
offset=6650
pitch_keycenter=g5
sample=Alto_trill_half_PP_G5.opus
</region>
</group>

<group>
group_label=Group_43-84
lpc_hicc1=84
lpc_locc1=43

<region>
hikey=a3
hivel=127
lokey=g#3
loop_end=281821
loop_mode=loop_continuous
loop_start=108151
loop_xfade=37743
lovel=1
lpc=+QwRQqSbrMJVh4hCLdTGwRKPn0FO6b7B+1yrQb3wp8GZQ0FBC3YnP7y9DMCRitg/ozOjwGObokCgwIHAtEzHQG0FD8G+8/pAwWyywJNpZD9e+s0/h/fKQIZrHsE6EnRA
lpc_rms=-19.91
offset=5234
pitch_keycenter=a3
sample=Alto_trill_half_MF_A3.opus
</region>

<region>
hikey=a4
hivel=127
lokey=g#4
loop_end=280044
loop_mode=loop_continuous
loop_start=107470
loop_xfade=37505
lovel=1
lpc=yGypQb1EbcKzDpFCBoxmwsoHHkJFtu7BMO7dQcij1sF0xahBxN3nwN4Bf8DQ8rdASia7v6LLwb+Bkzw9fB4pvyIwKb8WIaxA5PVfwGLgUcDaGcJAoZAbwLGxXb+NwxA/
lpc_rms=-17.26
offset=3952
pitch_keycenter=a4
sample=Alto_trill_half_MF_A4.opus
</region>

<region>
hikey=B5
hivel=127
lokey=g#5
loop_end=271206
loop_mode=loop_continuous
loop_start=104078
loop_xfade=36322
lovel=1
lpc=aQHeQTWQUMIvTzZC6iKrwZ1jZ0EzWJjBfBiXQQCK58CUGsY/Hmn9vTSQe79ASQ5BOsszwVZW3kAigTu/Ch98QCSbnsC+uTm/9dYuQVuvQMHiiyNBRYElwbNBdEEarSHB
lpc_rms=-15.63
pitch_keycenter=A5
sample=Alto_trill_half_MF_A5.opus
</region>

<region>
hikey=b3
hivel=127
lokey=a#3
loop_end=281992
loop_mode=loop_continuous
loop_start=108217
loop_xfade=37766
lovel=1
lpc=iefNQau2ecLjjWFCCE/dwd5FjUHqrZbBZBaCQanzTsFFOMlAKoaPQKQM4sCUFwdAILkCwMUm0ECVwgnB1TEAQQT0ysA9iOFAPT79wLE4pkAnnA7BgOd/QVt/OcGbTkNA
lpc_rms=-22.15
offset=4599
pitch_keycenter=b3
sample=Alto_trill_half_MF_B3.opus
</region>

<region>
hikey=b4
hivel=127
lokey=a#4
loop_end=277786
loop_mode=loop_continuous
loop_start=106603
loop_xfade=37203
lovel=1
lpc=/X8fQbLtyMEhO/FBDQvTwVmznEEWHzrBGwulQClw7b8vinq9FjJYQNmYu8B+YOZAjMbpwDAWo0C6DMW/jxsRwOnGZUARGA7AaOjzPySXy79kczk/xO8Tv0XTOz+G0ju+
lpc_rms=-20.34
offset=5276
pitch_keycenter=b4
sample=Alto_trill_half_MF_B4.opus
</region>

<region>
hivel=127
key=c#3
loop_end=277348
loop_mode=loop_continuous
loop_start=106435
loop_xfade=37144
lovel=1
lpc=RVgbQuYf3sLJqv9C6dehwoPbI0KQCPnB0ub7QRYAEsI0IQ5C5z5HwSYqRMGpaJ5BGiqqweKSjUHgrc7As52BP7rP28Dl9dFADW+SQA5W58AyAkxAUTjZv+lZZD9mCK6+
lpc_rms=-19.44
offset=16952
sample=Alto_trill_half_MF_C#3.opus
</region>

<region>
hikey=c#4
hivel=127
lokey=c4
loop_end=278387
loop_mode=loop_continuous
loop_start=106833
loop_xfade=37283
lovel=1
lpc=SL3RQaHPgsL7GYtC8rA5wiL+xkEzP23BYPM+QcRmScHrrx1Bds7GP2dOJsFWsilB+i8AwdsJwUCV/tDAKHTvQFpE1MD0MhFAoPB3P0tt0b8GUMc/griOQBRZ48AyezJA
lpc_rms=-19.85
offset=2582
pitch_keycenter=c#4
sample=Alto_trill_half_MF_C#4.opus
</region>

<region>
hikey=c#5
hivel=127
lokey=c5
loop_end=270387
loop_mode=loop_continuous
loop_start=103764
loop_xfade=36212
lovel=1
lpc=bN/aQOAXdMG4yY5B28VuwTvFEEFt4bK/aZuJwJYlnUDNsjDAl3L2P76Q2r92Q+U/1ZQdwB6pIEB59Wi/I0HRvmgKvj8PYum/QxK4PybnHj0+uai/hsTjP8emrr8NDoE/
lpc_rms=-23.42
offset=1394
pitch_keycenter=c#5
sample=Alto_trill_half_MF_C#5.opus
</region>

<region>
hikey=d#3
hivel=127
lokey=d3
loop_end=280509
loop_mode=loop_continuous
loop_start=107648
loop_xfade=37567
lovel=1
lpc=+6UAQhSMrMKZxq5CqCs5wlvDt0HHOIvBnDhYQaelgMFudZlBLfeYwKJgbsGnC6VB58B+wT1QyEAGoR+/LZLRQKNKOsE1rgZAcFT4QCvGV8BGvbo+oCxfPRvMoMDQS25A
lpc_rms=-18.63
offset=10554
pitch_keycenter=d#3
sample=Alto_trill_half_MF_D#3.opus
</region>

<region>
hikey=d#4
hivel=127
lokey=d4
loop_end=278262
loop_mode=loop_continuous
loop_start=106786
loop_xfade=37266
lovel=1
lpc=ePJtQdgzIMKRtzxCRGMRwlmcwkHnkXrB0kkaQcSQEcHb8jRBZAIBwYjiMD4aL7xAKuHdwPZPsUDE9JDA5xSMQKBAo8Ax7lRA3OLUvjwUrD9ha1XAr2hKQPGhy791274+
lpc_rms=-25.42
offset=2598
pitch_keycenter=d#4
sample=Alto_trill_half_MF_D#4.opus
</region>

<region>
hikey=d#5
hivel=127
lokey=d5
loop_end=270636
loop_mode=loop_continuous
loop_start=103859
loop_xfade=36245
lovel=1
lpc=WV7kQGL7c8FSro9BqXRywUWIHUFACYPAMCgBP1JPb78g4zpAmccswP/NDkBp022/5XjXvmNmIkD4amTAm9+BQOrKcMAMSiNA4E1Av2sQbTyD5AO/JmXRPzXHsb8oP5o/
lpc_rms=-20.91
offset=1040
pitch_keycenter=d#5
sample=Alto_trill_half_MF_D#5.opus
</region>

<region>
hikey=f3
hivel=127
lokey=e3
loop_end=272844
loop_mode=loop_continuous
loop_start=104707
loop_xfade=36541
lovel=1
lpc=giPJQV8QdcJKNlBCPvyWwT8nHkEOJ3fBS5l3QdWqd8Ex7YNBlX4DwWRkBsBDjqNA2UddwFdgeL8TMVhAr8k2P+pzisAvv5U/2QhwvxClKkDr/GNAf/6+wGQztD8If8c+
lpc_rms=-20.22
offset=8012
pitch_keycenter=f3
sample=Alto_trill_half_MF_F3.opus
</region>

<region>
hikey=f4
hivel=127
lokey=e4
loop_end=277178
loop_mode=loop_continuous
loop_start=106370
loop_xfade=37121
lovel=1
lpc=BcUkQhFMwcI2yZFC95OiwUdWjEFJg9/BvUmbQWaiWMGtb2RBO/ZxwHeMFMGOgFtBWg23wKZLrsBvXR1Aa+lTQFOvxcBo8x9BWDTAwNoDE8D9cS1AzW6jQHMDAcGYRFlA
lpc_rms=-19.09
offset=6424
pitch_keycenter=f4
sample=Alto_trill_half_MF_F4.opus
</region>

<region>
hikey=f5
hivel=127
lokey=e5
loop_end=271925
loop_mode=loop_continuous
loop_start=104354
loop_xfade=36418
lovel=1
lpc=showQemIvcH4OsxBhOyLwRzdI0GRX6/AIKeEQI8boMBpONlAsU6ZwAWaBEDfd5o89no1wPNl8kD6mwfBxgfoQB0PocCw7mhAHIH8v2Toh0DYXfLAZaUMQXc/vcAZpjZA
lpc_rms=-21.52
offset=506
pitch_keycenter=f5
sample=Alto_trill_half_MF_F5.opus
</region>

<region>
hikey=g3
hivel=127
lokey=f#3
loop_end=277436
loop_mode=loop_continuous
loop_start=106469
loop_xfade=37156
lovel=1
lpc=5VoCQntknsK30IJC4OHKwfsIqEGhhdnBVwinQcpFisGJXFhBF9iwP7TcLsFwrxlBF/PkwIp5f0A+WELAerLEQDiKo8AJy5o/gksKwFlzvL8YpxhBiWLrwDD39D8HmBi/
lpc_rms=-19.75
offset=4648
pitch_keycenter=g3
sample=Alto_trill_half_MF_G3.opus
</region>

<region>
hikey=g4
hivel=127
lokey=f#4
loop_end=277388
loop_mode=loop_continuous
loop_start=106450
loop_xfade=37150
lovel=1
lpc=nryJQcapPMKCz3lCqydfwtEPFUKxnYfBIS4oQFOMsL4R4BVAnSIRQCMWK8EKJoNBiZKSwXpIhkGpB0fBFaoSQS3+BsFRdnpAf5iPQAPNC8HSRvZAcJmMwDidpj/Dlew+
lpc_rms=-17.95
offset=2878
pitch_keycenter=g4
sample=Alto_trill_half_MF_G4.opus
</region>

<region>
hikey=g5
hivel=127
lokey=f#5
loop_end=271507
loop_mode=loop_continuous
loop_start=104193
loop_xfade=36362
lovel=1
lpc=752JQZxz58GD87VBlN74wG3Yyj+PWWpAgAF9wMQ9ZT/Tnv5AhFbawPPSHUDa2h0/p//nvmcSo0AhF5jAQJiOQBk86z4QqXnAVP6sQCbLR78/an2+dISHQJsMpsDzaaBA
lpc_rms=-19.26
offset=5686
pitch_keycenter=g5
sample=Alto_trill_half_MF_G5.opus
</region>
</group>

<group>
group_label=Group_85-127
lpc_hicc1=127
lpc_locc1=85

<region>
hikey=a3
hivel=127
lokey=g#3
loop_end=276976
loop_mode=loop_continuous
loop_start=106292
loop_xfade=37094
lovel=1
lpc=+S9DQSvj98GSfwVCFwqjwTYW5UCGuyfAwkiqQIzQO8Gec39BsrE0waP4D0DASYRAW8SuwPiZQUCz5eY+rfqEv4a8KcCUjn1AEEn6v1zOiD8f3Eu/BnzUvjPL2T9AvH+/
lpc_rms=-16.47
offset=2436
pitch_keycenter=a3
sample=Alto_trill_half_FF_A3.opus
</region>

<region>
hikey=a4
hivel=127
lokey=g#4
loop_end=281684
loop_mode=loop_continuous
loop_start=108099
loop_xfade=37725
lovel=1
lpc=V845Qb9V28FiTO9B0YrKwZ9fo0EV93XB6SlCQZysRMF3m1lB/1cpwRzZuED6XAK/h5dGwNUDoEC46IvAgUiivwLvkUAL14LAJSuoQNTSxMCsF2xAKR9av2o/rT8AuKm/
lpc_rms=-11.69
offset=6302
pitch_keycenter=a4
sample=Alto_trill_half_FF_A4.opus
</region>

<region>
hikey=B5
hivel=127
lokey=g#5
loop_end=278968
loop_mode=loop_continuous
loop_start=107057
loop_xfade=37361
lovel=1
lpc=MGFTQcU0wsFmAMJB2bF7wXd/L0GA78XAZiBSQDRyXcADIAtBBnq4wEIo8z7sAU1A2Ft9v/CqWD+tfgI9SKA9v67vHEDhDxU/bc7QvnXacz1ASO8+7DPBP+qWDj/bkXm/
lpc_rms=-17.61
offset=439
pitch_keycenter=A5
sample=Alto_trill_half_FF_A5.opus
</region>

<region>
hikey=b3
hivel=127
lokey=a#3
loop_end=278514
loop_mode=loop_continuous
loop_start=106882
loop_xfade=37300
lovel=1
lpc=02dHQYyL9sFf3wBC3jmWwYCP4UCiO43AvJ7OQBQ7C8H+L99AoV21v7HS9b/s2pw/wAQ/PQYz071dv+C+yggQPzs7v78canpACV9bwLQ51r8T43hA4yGLPt5dOsCiKbY/
lpc_rms=-18.74
offset=4590
pitch_keycenter=b3
sample=Alto_trill_half_FF_B3.opus
</region>

<region>
hikey=b4
hivel=127
lokey=a#4
loop_end=279812
loop_mode=loop_continuous
loop_start=107380
loop_xfade=37474
lovel=1
lpc=iIaaQCgnGME36A1BCcbcwHvAqUD71GXAdG0zQLU2cMBmW5NAAdMzwH3Q+z7wkdA/QY4owNXhzT+uNDE93yuSv2Bogz+vtCy+0Cyavnaehj8MlpC/mm9mPaRhOj9hbMO+
lpc_rms=-14.55
offset=3882
pitch_keycenter=b4
sample=Alto_trill_half_FF_B4.opus
</region>

<region>
hivel=127
key=c#3
loop_end=276395
loop_mode=loop_continuous
loop_start=106069
loop_xfade=37017
lovel=1
lpc=zMtQQd4fAsJLwQlCtiu8wdexe0Ho9VPBDD8sQb65HsF7YC9B9xEDwdb7ZEBznZs95x9lwEchtUBE1cLAhXyZQNrWh8A/S9RAul7twG3CikC10lS/6rKQPYLUnr6hdxA7
lpc_rms=-14.99
offset=13854
sample=Alto_trill_half_FF_C#3.opus
</region>

<region>
hikey=c#4
hivel=127
lokey=c4
loop_end=277541
loop_mode=loop_continuous
loop_start=106509
loop_xfade=37170
lovel=1
lpc=ScJeQR/8BMLYfw1CZr7GwSDYZkE2WiPB6c01QXiwfMGbyIJBaRcVweD0GEDJEpk+uhKav4m47z+rkCrAzFEmQHiNrb9pk4K/MPegPqIN/z/Qza6/F+YHQEPDIsDKrIQ/
lpc_rms=-17.63
offset=2158
pitch_keycenter=c#4
sample=Alto_trill_half_FF_C#4.opus
</region>

<region>
hikey=c#5
hivel=127
lokey=c5
loop_end=274657
loop_mode=loop_continuous
loop_start=105402
loop_xfade=36784
lovel=1
lpc=xgZsQBNr1cBhUMxAA2SiwBfJkUDgNYPAUIdnQElGU8DFLStANNe2v4UjIT+ZFPS+KYXZPvVeij6JjXm/NY7SPjF2FD8CzPy+f5cCP3G3jzy0piG/51VLP/A6oL10mks7
lpc_rms=-17.78
offset=458
pitch_keycenter=c#5
sample=Alto_trill_half_FF_C#5.opus
</region>

<region>
hikey=d#3
hivel=127
lokey=d3
loop_end=277015
loop_mode=loop_continuous
loop_start=106307
loop_xfade=37100
lovel=1
lpc=QBipQTV/XMLi3WFC1t8AwuAYgEHj5jPBE9tBQfYlnsEvSsdBUMNawdDNZsBpp2dB0baUwYEbV0GoRcjAZY4EQWmVY8G7TjxBsiSHwMtPOkDedEPAlCK5P2au3L9gCoc/
lpc_rms=-15.38
offset=16722
pitch_keycenter=d#3
sample=Alto_trill_half_FF_D#3.opus
</region>

<region>
hikey=d#4
hivel=127
lokey=d4
loop_end=278988
loop_mode=loop_continuous
loop_start=107064
loop_xfade=37364
lovel=1
lpc=4ez5QI7OmsFr77JBkXOSwdb6XEEDcy7BWgAbQUrzOsFigldBOFATwUvD6j/fS0tAcWuZwMvwjECw8kfAefEtQJgpl8DNj7tA4Yp9wP8qBEDaOZG/Vy/ZPU4AVD9iWw6/
lpc_rms=-21.53
offset=5884
pitch_keycenter=d#4
sample=Alto_trill_half_FF_D#4.opus
</region>

<region>
hikey=d#5
hivel=127
lokey=d5
loop_end=278867
loop_mode=loop_continuous
loop_start=107018
loop_xfade=37348
lovel=1
lpc=kHeEQA1r/MBlrP5AW4PHwMIBmkAqT0zApXooQGSbfsA1vbRAqySlwJjfW0DnBqa/ucdJuyWwBT928WW+rTjbvH7KwT5dQei9LomdvMJJgz4xWAi/IRlrPxNHKL9xswU/
lpc_rms=-16.53
offset=12505
pitch_keycenter=d#5
sample=Alto_trill_half_FF_D#5.opus
</region>

<region>
hikey=f3
hivel=127
lokey=e3
loop_end=277709
loop_mode=loop_continuous
loop_start=106574
loop_xfade=37192
lovel=1
lpc=BlJsQRUND8KLHQ9CNRaywTiUSUHqbAzB59jsQDSTJMFZSWNB9y8qwXjbHUBTlp5AWfoPwWFYB0E4K7vAw9dtQG8ZJMBwzKO9lmt6P+dcUEBiQITA5JILPRqtE0C/WZO/
lpc_rms=-17.07
offset=6398
pitch_keycenter=f3
sample=Alto_trill_half_FF_F3.opus
</region>

<region>
hikey=f4
hivel=127
lokey=e4
loop_end=275667
loop_mode=loop_continuous
loop_start=105790
loop_xfade=36919
lovel=1
lpc=LgCJQc07KcLE2ShCxwe/wT6mQ0Hz+kfByKaCQXmUpcFCvqRBZVE5wc75BUDT/G5A/tWAwI/f2b/a3wdBjnwRwXHAFkAsd2Y/zpkJQGWkucDr8QRBdvoMwfhH00CMagzA
lpc_rms=-14.01
offset=7633
pitch_keycenter=f4
sample=Alto_trill_half_FF_F4.opus
</region>

<region>
hikey=f5
hivel=127
lokey=e5
loop_end=276418
loop_mode=loop_continuous
loop_start=106078
loop_xfade=37020
lovel=1
lpc=3Z7DQHAGPcFNIE5BVM0dwZ9U40CURYTAizfeP8ZoQr+EjBlAadRVwNt3NkDzUhW/tvL8v5rMiECGUJDAUExvQILSqr/q6xk/TJ2Qvmrdjj8WDhPAnwt/QGlQTcAy4NE/
lpc_rms=-16.99
offset=241
pitch_keycenter=f5
sample=Alto_trill_half_FF_F5.opus
</region>

<region>
hikey=g3
hivel=127
lokey=f#3
loop_end=277881
loop_mode=loop_continuous
loop_start=106640
loop_xfade=37215
lovel=1
lpc=r+mKQRwsLsK6gzlC6oPtwZI3UkF3orbAPbfVQEl7V8HzGpBBpIwywXx6Zr5kBgpBK90twQvqwUBCX0c7GozSvz2UW78fHr8/Yw99vzVFFUDc+l4/rueswE1jqkDtKwvA
lpc_rms=-15.44
offset=4654
pitch_keycenter=g3
sample=Alto_trill_half_FF_G3.opus
</region>

<region>
hikey=g4
hivel=127
lokey=f#4
loop_end=275134
loop_mode=loop_continuous
loop_start=105585
loop_xfade=36848
lovel=1
lpc=WdwxQR/90MGhOspBPb5swRCDD0GqKBbBklQ7Qc8MbMGtBl9BI7zHwAXinL+I/YhAY4xgwOK/xD8EtKi/yU5KQMvKkMD5JSZAJGAbP1TwCMDPF3RAVl+JwE1iBkCfxUu+
lpc_rms=-14.85
offset=4565
pitch_keycenter=g4
sample=Alto_trill_half_FF_G4.opus
</region>

<region>
hikey=g5
hivel=127
lokey=f#5
loop_end=276926
loop_mode=loop_continuous
loop_start=106273
loop_xfade=37088
lovel=1
lpc=NBklQfR3h8GRHmpBd3TFwAkA9j8QEFtAF2ifwB5VSED/CoRAkRK+wMjClkCmlFa/O2kev54zlkDKj7TAVTe0QKEemL5YCFrAsaCsQN1BH8BWCIs/Sb5VQPc1qMAIc5xA
lpc_rms=-16.67
offset=4642
pitch_keycenter=g5
sample=Alto_trill_half_FF_G5.opus
</region>
</group>